<?xml version="1.0"?>
<svg xmlns="http://www.w3.org/2000/svg" xmlns:xlink="http://www.w3.org/1999/xlink" version="1.1" width="512" height="512" x="0" y="0" viewBox="0 0 512 512" style="enable-background:new 0 0 512 512" xml:space="preserve"><g><linearGradient xmlns="http://www.w3.org/2000/svg" id="SVGID_1_" gradientUnits="userSpaceOnUse" x1="256" x2="256" y1="512" y2="0"><stop stop-opacity="1" stop-color="#ffffff" offset="0"/><stop stop-opacity="1" stop-color="#8FC73E" offset="1"/><stop stop-opacity="1" stop-color="#ffffff" offset="1"/></linearGradient><linearGradient xmlns="http://www.w3.org/2000/svg" id="SVGID_2_" gradientUnits="userSpaceOnUse" x1="256" x2="256" y1="105" y2="407"><stop stop-opacity="1" stop-color="#a93aff" offset="0"/><stop stop-opacity="1" stop-color="#000000" offset="0"/></linearGradient><g xmlns="http://www.w3.org/2000/svg"><g><circle cx="256" cy="256" fill="url(#SVGID_1_)" r="256" data-original="url(#SVGID_1_)" style=""/></g><g><g><path d="m201.678 158.29c-29.314.642-61.139 31.344-61.139 76.716 0 23.783 2.871 39.941 4.77 50.636.477 2.715.902 5.057 1.18 7.069.607 4.397 4.363 7.667 8.795 7.667h74.427c5.387 0 9.479-4.738 8.812-9.983-1.509-12.056 1.232-28.909 3.868-45.215 2.324-14.319 4.727-29.125 4.727-42.5 0-25.999-21.935-45.145-45.44-44.39zm108.652-53.29c-27.23-.058-45.449 21.291-45.449 44.391 0 13.375 2.403 28.18 4.727 42.5 2.637 16.306 5.377 33.158 3.868 45.214-.321 2.524.468 5.065 2.151 6.982 1.691 1.908 4.111 3.001 6.661 3.001h74.427c4.432 0 8.188-3.27 8.795-7.667.277-2.012.703-4.354 1.18-7.069 1.9-10.694 4.77-26.853 4.77-50.636.001-45.466-31.967-76.077-61.13-76.716zm-75.823 213.141h-73.542c-5.486 0-9.643 4.926-8.769 10.313l6.739 41.146c3.293 21.001 21.73 37.4 43.766 37.4 26.025 0 44.155-21.829 44.417-46.351-.199-14.025-1.986-25.24-3.886-35.284-.789-4.189-4.457-7.224-8.725-7.224zm116.528-53.29h-73.542c-4.267 0-7.936 3.036-8.725 7.225-1.908 10.07-3.695 21.311-3.886 36.038.245 23.97 18.701 45.605 44.417 45.605 22.023 0 40.488-16.439 43.74-37.339l6.757-41.207c.888-5.389-3.269-10.322-8.761-10.322z" fill="url(#SVGID_2_)" data-original="url(#SVGID_2_)" style=""/></g></g></g></g></svg>
